<svg xmlns="http://www.w3.org/2000/svg" xmlns:xlink="http://www.w3.org/1999/xlink" version="1.1" x="0px" y="0px" viewBox="0 0 60 75" enable-background="new 0 0 60 60" xml:space="preserve"><path d="M45.998,16.713c-8.497-0.323-9.065,2.436-13.331,3.617c-4.267,1.181-6.934-2.4-6.934-2.4  c1.143,7.085,7.694,7.922,7.694,7.922s-2.801,0.87-4.228-0.4c-2.247-2-3.58-5.923-8.342-6.399c-3.949-0.395-6.514,3.885-6.514,3.885  c3.314-1.371,5.485-0.286,5.028,2c-0.457,2.286-2.571,1.69-2.571,1.69c-4.057-3.338-6.913-3.061-6.913-3.061  c-5.028-0.686-8.685,6.17-8.685,6.17c7.256-6.113,9.196,0.216,11.427,2.743c1.319,1.495,5.313,3.657,9.542,0  c4.228-3.657,7.522-0.57,7.522-0.57c-9.75-0.951-9.484,7.809-9.484,7.809s0.267-2.515,4.343-2.704  c4.076-0.19,6.056,3.999,10.513,4.57c1.552,0.199,2.894-0.398,3.991-1.252c1.227,1.176-2.43,2.509-2.43,2.509  c6.601,1.027,11.887,0.329,15.34-1.654c4.052-2.086,6.828-6.301,6.828-11.173C58.796,26.934,57.973,17.168,45.998,16.713z   M53.985,30.409l-2.652,1.719c-0.799,0.519-2.108,1.365-2.907,1.883l-2.652,1.719c-0.8,0.518-1.454,0.094-1.454-0.94v-3.438  c0-1.037,0-2.732,0-3.768v-3.438c0-1.037,0.654-1.46,1.454-0.942l2.652,1.719c0.799,0.518,2.108,1.365,2.907,1.884l2.652,1.719  C54.785,29.043,54.785,29.892,53.985,30.409z"/><text x="0" y="75" fill="#000000" font-size="5px" font-weight="bold" font-family="'Helvetica Neue', Helvetica, Arial-Unicode, Arial, Sans-serif">Created by pramana</text><text x="0" y="80" fill="#000000" font-size="5px" font-weight="bold" font-family="'Helvetica Neue', Helvetica, Arial-Unicode, Arial, Sans-serif">from the Noun Project</text></svg>