<svg xmlns="http://www.w3.org/2000/svg" xmlns:xlink="http://www.w3.org/1999/xlink" version="1.1" x="0px" y="0px" viewBox="0 0 32 40" style="enable-background:new 0 0 32 32;" xml:space="preserve"><path d="M28.36,22.14c-0.69,4.31-3.38,7.61-7.39,9.05c-0.11,0.04-0.23,0.06-0.34,0.06c-0.41,0-0.79-0.25-0.94-0.66  c-0.19-0.52,0.08-1.09,0.6-1.28c3.3-1.19,5.52-3.91,6.09-7.48c0.7-4.41-1.26-9.13-5-12.04c-3.45-2.68-5.13-5.63-5.87-7.26  C14.07,3.59,12,5.44,12,7c0,0.7,0.46,1,1.67,1.59C15.08,9.29,17,10.23,17,13c0,2.76-2.24,5-5,5c-1.81,0-3.41-0.97-4.28-2.42  C6.89,17.25,6,19.43,6,21c0,1.78,0.66,3.54,1.9,5.09c0.35,0.43,0.28,1.06-0.16,1.41c-0.43,0.35-1.06,0.28-1.41-0.16  C4.81,25.43,4,23.24,4,21c0-3.46,3.02-8.33,3.15-8.53c0.24-0.38,0.69-0.56,1.12-0.43C8.7,12.16,9,12.55,9,13c0,1.65,1.35,3,3,3  s3-1.35,3-3c0-1.45-0.8-1.92-2.21-2.61C11.55,9.78,10,9.01,10,7c0-3.47,4.92-6.52,5.49-6.86c0.27-0.16,0.59-0.19,0.88-0.07  c0.29,0.11,0.51,0.36,0.59,0.66c0.01,0.04,1.21,4.03,5.65,7.48C26.92,11.56,29.17,17.03,28.36,22.14z M21,24h-3v4c0,2.21-1.79,4-4,4  s-4-1.79-4-4s1.79-4,4-4c0.73,0,1.41,0.21,2,0.56V19c0-0.55,0.45-1,1-1h4c1.65,0,3,1.35,3,3S22.65,24,21,24z M16,28c0-1.1-0.9-2-2-2  s-2,0.9-2,2s0.9,2,2,2S16,29.1,16,28z M18,22h3c0.55,0,1-0.45,1-1s-0.45-1-1-1h-3V22z"/><text x="0" y="47" fill="#000000" font-size="5px" font-weight="bold" font-family="'Helvetica Neue', Helvetica, Arial-Unicode, Arial, Sans-serif">Created by Sebastian Belalcazar Lareo</text><text x="0" y="52" fill="#000000" font-size="5px" font-weight="bold" font-family="'Helvetica Neue', Helvetica, Arial-Unicode, Arial, Sans-serif">from the Noun Project</text></svg>