<svg xmlns="http://www.w3.org/2000/svg" version="1.1" viewBox="-5.0 -10.0 110.0 135.0">
 <path d="m64.062 75c-4.3125 0-7.8125-3.5-7.8125-7.8125v-37.5c0-0.875-0.6875-1.5625-1.5625-1.5625s-1.5625 0.6875-1.5625 1.5625v34.375c0 4.3125-3.5 7.8125-7.8125 7.8125s-7.8125-3.5-7.8125-7.8125v-28.125c0-0.875-0.6875-1.5625-1.5625-1.5625s-1.5625 0.6875-1.5625 1.5625v31.25c0 4.3125-3.5 7.8125-7.8125 7.8125s-7.8125-3.5-7.8125-7.8125v-15.625c0-0.875-0.6875-1.5625-1.5625-1.5625s-1.5625 0.6875-1.5625 1.5625v10.938c0 1.7188-1.4062 3.125-3.125 3.125s-3.125-1.4062-3.125-3.125v-10.938c0-4.3125 3.5-7.8125 7.8125-7.8125s7.8125 3.5 7.8125 7.8125v15.625c0 0.875 0.6875 1.5625 1.5625 1.5625s1.5625-0.6875 1.5625-1.5625v-31.25c0-4.3125 3.5-7.8125 7.8125-7.8125s7.8125 3.5 7.8125 7.8125v28.125c0 0.875 0.6875 1.5625 1.5625 1.5625s1.5625-0.6875 1.5625-1.5625v-34.375c0-4.3125 3.5-7.8125 7.8125-7.8125s7.8125 3.5 7.8125 7.8125v37.5c0 0.875 0.6875 1.5625 1.5625 1.5625s1.5625-0.6875 1.5625-1.5625v-25c0-4.3125 3.5-7.8125 7.8125-7.8125s7.8125 3.5 7.8125 7.8125v18.75c0 0.875 0.6875 1.5625 1.5625 1.5625s1.5625-0.6875 1.5625-1.5625v-17.188c0-1.7188 1.4062-3.125 3.125-3.125s3.125 1.4062 3.125 3.125v17.188c0 4.3125-3.5 7.8125-7.8125 7.8125s-7.8125-3.5-7.8125-7.8125v-18.75c0-0.875-0.6875-1.5625-1.5625-1.5625s-1.5625 0.6875-1.5625 1.5625v25c0 4.3125-3.5 7.8125-7.8125 7.8125z"/>
<text x="0.0" y="117.5" font-size="5.0" font-weight="bold" font-family="Arbeit Regular, Helvetica, Arial-Unicode, Arial, Sans-serif" fill="#000000">Created by Thea Graph</text><text x="0.0" y="122.5" font-size="5.0" font-weight="bold" font-family="Arbeit Regular, Helvetica, Arial-Unicode, Arial, Sans-serif" fill="#000000">from Noun Project</text></svg>